<mxfile host="app.diagrams.net" modified="2024-03-29T06:53:20.530Z" agent="Mozilla/5.0 (Windows NT 10.0; Win64; x64) AppleWebKit/537.36 (KHTML, like Gecko) Chrome/122.0.0.0 Safari/537.36 Edg/122.0.0.0" version="23.0.1" etag="ZnHZ1zxOalv2UGKTFY4G" type="github">
  <diagram name="Page-1" id="h-dJLR11idaQCUL10mUi">
    <mxGraphModel>
      <root>
        <mxCell id="0" />
        <mxCell id="1" parent="0" />
      </root>
    </mxGraphModel>
  </diagram>
</mxfile>
